# OBJ generated by ONSHAPE BY PTC INC, 1.214 Units = meters
mtllib pink_sponge.mtl
g pink_sponge
v -0.03 -0.007 0.01 
v 0.015 -0.007 0.01 
v 0.015 0.014 0.01 
v 0.015 0.014 -0.01 
v -0.03 -0.007 -0.01 
v 0.015 -0.007 -0.01 
vn 0 0 1 
vn -0.422885 0.906183 0 
vn 0 -1 0 
vn 1 -3.30424e-16 0 
vn 0 0 -1 
usemtl 0.615686_0.811765_0.929412_0.000000_0.000000
o mesh0
f 1//1 2//1 3//1 
o mesh1
f 1//2 3//2 4//2 
f 4//2 5//2 1//2 
o mesh2
f 2//3 1//3 5//3 
f 5//3 6//3 2//3 
o mesh3
f 3//4 2//4 6//4 
f 6//4 4//4 3//4 
o mesh4
f 4//5 6//5 5//5 
